<?xml version="1.0" encoding="UTF-8" standalone="no"?>
<svg
   width="128"
   height="128"
   viewBox="0 0 128 128"
   version="1.1"
   id="svg3"
   sodipodi:docname="io.github.giantpinkrobots.flatsweep.svg"
   inkscape:version="1.3 (0e150ed6c4, 2023-07-21)"
   xmlns:inkscape="http://www.inkscape.org/namespaces/inkscape"
   xmlns:sodipodi="http://sodipodi.sourceforge.net/DTD/sodipodi-0.dtd"
   xmlns="http://www.w3.org/2000/svg"
   xmlns:svg="http://www.w3.org/2000/svg">
  <defs
     id="defs3">
    <inkscape:path-effect
       effect="perspective-envelope"
       up_left_point="134.16112,63.894583"
       up_right_point="166.45855,45.82092"
       down_left_point="134.16771,101.54204"
       down_right_point="166.46984,84.509694"
       id="path-effect23"
       is_visible="true"
       lpeversion="1"
       deform_type="perspective"
       horizontal_mirror="false"
       vertical_mirror="false"
       overflow_perspective="false" />
    <inkscape:path-effect
       effect="perspective-envelope"
       up_left_point="72.651103,68.975796"
       up_right_point="98.641016,53.970513"
       down_left_point="72.651103,99.005283"
       down_right_point="98.641016,84.000001"
       id="path-effect17"
       is_visible="true"
       lpeversion="1"
       deform_type="perspective"
       horizontal_mirror="false"
       vertical_mirror="false"
       overflow_perspective="false" />
    <inkscape:path-effect
       effect="perspective-envelope"
       up_left_point="78.413638,63.975002"
       up_right_point="108.41364,63.975002"
       down_left_point="78.413638,92.975003"
       down_right_point="108.41364,92.975003"
       id="path-effect16"
       is_visible="true"
       lpeversion="1"
       deform_type="perspective"
       horizontal_mirror="false"
       vertical_mirror="false"
       overflow_perspective="false" />
  </defs>
  <sodipodi:namedview
     id="namedview3"
     pagecolor="#505050"
     bordercolor="#eeeeee"
     borderopacity="1"
     inkscape:showpageshadow="0"
     inkscape:pageopacity="0"
     inkscape:pagecheckerboard="0"
     inkscape:deskcolor="#505050"
     inkscape:zoom="8"
     inkscape:cx="54.4375"
     inkscape:cy="73.0625"
     inkscape:window-width="1920"
     inkscape:window-height="1011"
     inkscape:window-x="0"
     inkscape:window-y="0"
     inkscape:window-maximized="1"
     inkscape:current-layer="svg3" />
  <g
     inkscape:groupmode="layer"
     id="layer2"
     inkscape:label="New"
     style="display:inline" />
  <rect
     style="display:inline;fill:#1c71d8;fill-opacity:1;stroke:none;stroke-width:7.90332;stroke-linecap:square;stroke-linejoin:round"
     id="rect3"
     width="112"
     height="80"
     x="8"
     y="24"
     ry="14.034162"
     inkscape:label="Blue Background" />
  <path
     sodipodi:type="star"
     style="display:inline;fill:#ed333b;fill-opacity:1;stroke:none;stroke-width:5;stroke-linecap:square;stroke-linejoin:round"
     id="path4"
     inkscape:flatsided="true"
     sodipodi:sides="6"
     sodipodi:cx="36.324223"
     sodipodi:cy="41.657764"
     sodipodi:r1="48.427113"
     sodipodi:r2="41.93911"
     sodipodi:arg1="0.52359878"
     sodipodi:arg2="1.0471976"
     inkscape:rounded="0.05"
     inkscape:randomized="0"
     d="m 78.263332,65.871321 c -1.210678,2.096955 -39.517754,24.213556 -41.93911,24.213556 -2.421355,0 -40.7284315,-22.116601 -41.9391093,-24.213556 -1.2106778,-2.096956 -1.2106776,-46.330158 2e-7,-48.427113 1.2106779,-2.096956 39.5177541,-24.2135562 41.9391101,-24.2135561 2.421355,0 40.728432,22.1166011 41.939109,24.2135561 1.210678,2.096956 1.210678,46.330157 0,48.427113 z"
     transform="matrix(1.1325944,0,0,1.0841035,22.859389,18.838672)"
     inkscape:label="Red Cube" />
  <path
     id="path23"
     style="display:inline;fill:#ffffff;stroke:none;stroke-width:0.1;stroke-linecap:square;stroke-linejoin:round"
     d="M 64,24 V 64 L 98.640625,44 Z M 64,64 29.359375,44 V 84 L 64,104 Z"
     inkscape:label="White Cube" />
  <path
     id="path7"
     style="display:inline;fill:#ffffff;stroke-width:0.143847;stroke-linecap:square;stroke-linejoin:round"
     d="m 144.73157,57.979354 c -1.06567,0.596349 -2.12916,2.455443 -2.12889,3.719269 l 7.8e-4,3.791563 -7.39273,4.097163 c -0.58111,0.322058 -1.04841,1.140742 -1.04829,1.835906 l 4.4e-4,2.509648 c 1.2e-4,0.695179 0.46763,0.99781 1.04874,0.67825 l 3.15694,-1.736019 0.005,23.930026 c 2.4e-4,1.259589 1.0567,1.962265 2.11483,1.404332 L 159.8669,87.991307 c 1.09543,-0.5776 2.19252,-2.441325 2.19217,-3.726372 l -0.007,-24.41365 3.30415,-1.816973 c 0.61217,-0.336635 1.10529,-1.183037 1.10508,-1.897444 l -7.5e-4,-2.579059 c -2.1e-4,-0.71439 -0.49365,-1.016131 -1.10581,-0.676864 l -7.68125,4.257059 -9.9e-4,-3.840141 c -3.4e-4,-1.280022 -1.08992,-1.95049 -2.17717,-1.342063 z m 2.13799,2.609297 6.45842,-3.593267 c 0.54372,-0.302508 1.08345,0.03986 1.08361,0.67383 l 3.2e-4,1.276554 -8.61136,4.772545 -2.8e-4,-1.267302 c -1.4e-4,-0.635618 0.5345,-1.564823 1.06929,-1.86236 z m -4.26506,9.957115 15.07059,-8.287408 0.006,21.76362 -15.07183,8.012064 z m 4.80311,1.166493 c -0.88978,0.486424 -1.60495,1.725375 -1.60472,2.778584 l 0.002,10.139619 c 2.3e-4,1.053294 0.7158,1.518654 1.60564,1.042748 0.89118,-0.476625 1.60941,-1.711137 1.60917,-2.767303 l -0.002,-10.167257 c -2.4e-4,-1.05608 -0.71882,-1.513552 -1.60996,-1.026391 z m 5.38224,-2.942333 c -0.89793,0.490877 -1.61962,1.737264 -1.61937,2.795266 l 0.002,10.185768 c 2.5e-4,1.058088 0.72238,1.523807 1.62036,1.043545 0.89935,-0.480992 1.62415,-1.722906 1.62389,-2.783892 l -0.003,-10.213659 c -2.6e-4,-1.060899 -0.72545,-1.518651 -1.62475,-1.027028 z"
     inkscape:label="Trashcan"
     transform="translate(-64.748309,3.2094197)"
     inkscape:original-d="m 148.80834,57.906087 c -1,0 -2.00001,1 -2,2 v 3 h -7 c -0.554,0 -1,0.446001 -1,1 v 2 c 0,0.553999 0.446,1 1,1 h 3 v 19 c 0,0.999999 1,2 2,2 h 18 c 1,0 2,-1.000001 2,-2 v -19 h 3 c 0.554,0 1,-0.446001 1,-1 v -2 c 0,-0.553999 -0.446,-1 -1,-1 h -7 v -3 c 0,-0.999999 -1,-2 -2,-2 z m 2,3 h 6 c 0.50214,0 1,0.503374 1,1 v 1 h -8 v -1 c 0,-0.501556 0.50022,-1.000002 1,-1 z m -4,6 h 14 v 17 h -14 z m 4.5,3 c -0.831,0 -1.5,0.669001 -1.5,1.5 v 8 c 0,0.830999 0.669,1.5 1.5,1.5 0.831,0 1.5,-0.669001 1.5,-1.5 v -8 c 0,-0.830999 -0.669,-1.5 -1.5,-1.5 z m 5,0 c -0.831,0 -1.5,0.669001 -1.5,1.5 v 8 c 0,0.830999 0.669,1.5 1.5,1.5 0.831,0 1.5,-0.669001 1.5,-1.5 v -8 c 0,-0.830999 -0.669,-1.5 -1.5,-1.5 z"
     inkscape:path-effect="#path-effect23" />
</svg>
