<?xml version="1.0" encoding="UTF-8" standalone="no"?>
<!-- Created with Inkscape (http://www.inkscape.org/) -->

<svg
   width="36"
   height="36"
   viewBox="0 0 9.5250001 9.525"
   version="1.1"
   id="svg1"
   xml:space="preserve"
   inkscape:version="1.3 (0e150ed6c4, 2023-07-21)"
   sodipodi:docname="io.github.giantpinkrobots.flatsweep-symbolic.svg"
   xmlns:inkscape="http://www.inkscape.org/namespaces/inkscape"
   xmlns:sodipodi="http://sodipodi.sourceforge.net/DTD/sodipodi-0.dtd"
   xmlns="http://www.w3.org/2000/svg"
   xmlns:svg="http://www.w3.org/2000/svg"><sodipodi:namedview
     id="namedview1"
     pagecolor="#ffffff"
     bordercolor="#000000"
     borderopacity="0.25"
     inkscape:showpageshadow="2"
     inkscape:pageopacity="0.0"
     inkscape:pagecheckerboard="0"
     inkscape:deskcolor="#d1d1d1"
     inkscape:document-units="mm"
     inkscape:zoom="16"
     inkscape:cx="5.75"
     inkscape:cy="25.21875"
     inkscape:window-width="1920"
     inkscape:window-height="1043"
     inkscape:window-x="0"
     inkscape:window-y="0"
     inkscape:window-maximized="1"
     inkscape:current-layer="layer1" /><defs
     id="defs1" /><g
     inkscape:label="Layer 1"
     inkscape:groupmode="layer"
     id="layer1"
     transform="translate(-100.12812,-144.27518)"><path
       style="fill:#000000"
       d="m 104.55758,153.39128 c -0.16298,-0.0567 -0.69991,-0.33929 -1.19318,-0.62792 -0.89685,-0.52478 -0.89685,-0.52478 -1.61731,-0.52478 -1.50421,0 -1.60414,-0.21606 -1.57332,-3.4018 0.0305,-3.15459 0.10494,-3.28686 1.84966,-3.28686 0.91213,0 0.91213,0 1.65964,-0.43517 1.10157,-0.64129 1.32045,-0.64505 2.38728,-0.041 0.84099,0.47618 0.84099,0.47618 1.75961,0.47649 1.75486,6.1e-4 1.80689,0.0965 1.80731,3.33122 4.1e-4,3.22122 -0.0623,3.35713 -1.5496,3.35713 -0.72559,0 -0.72559,0 -1.72567,0.58059 -1.10434,0.64111 -1.36694,0.72437 -1.80442,0.57211 z m 0.33867,-2.54212 c 0,-1.81275 0,-1.81275 1.52383,-2.68816 0.83811,-0.48148 1.51291,-0.90842 1.49955,-0.94876 -0.035,-0.10585 -2.76412,-1.74699 -2.90511,-1.74699 -0.0974,0 -0.11827,0.30621 -0.11827,1.73567 0,0.95461 -0.025,1.73566 -0.0555,1.73566 -0.0305,0 -0.6687,-0.35991 -1.41817,-0.7998 -0.74947,-0.43989 -1.43009,-0.82526 -1.51251,-0.85637 -0.605,-0.22838 -0.0934,3.6385 0.53085,4.01194 1.04162,0.62318 2.32384,1.35313 2.39183,1.36163 0.0349,0.004 0.0635,-0.8078 0.0635,-1.80482 z m 2.11737,0.77275 c 0.76466,-0.46001 0.84596,-0.61433 0.84596,-1.60577 0,-0.69179 0.0228,-0.81993 0.16934,-0.95256 0.32549,-0.29457 0.19743,-0.46733 -0.20911,-0.28209 -0.18456,0.0841 -0.23443,0.0752 -0.33295,-0.0596 -0.21999,-0.30085 -1.23594,0.35887 -1.23594,0.80257 0,0.0834 -0.1524,0.25244 -0.33867,0.37571 -0.36254,0.23991 -0.44647,0.47572 -0.16933,0.47572 0.15734,0 0.16933,0.0564 0.16933,0.79727 0,1.04971 0.061,1.07457 1.10137,0.44872 z m -0.75995,-0.80149 c 0.004,-1.16485 1.21043,-1.86155 1.2495,-0.72177 0.0281,0.82022 0.0158,0.84395 -0.62286,1.2044 -0.63344,0.3575 -0.62977,0.36032 -0.62664,-0.48263 z m 0.50525,-0.20256 c 0,-0.37018 -0.029,-0.5005 -0.10584,-0.47521 -0.11076,0.0365 -0.19347,0.75508 -0.11149,0.96871 0.0998,0.25994 0.21733,-0.007 0.21733,-0.4935 z m 0.49189,-0.19547 c 0.0144,-0.22328 0.003,-0.46688 -0.0257,-0.54134 -0.0928,-0.24198 -0.20946,0.0707 -0.21088,0.56542 -0.002,0.58357 0.19866,0.56318 0.2366,-0.0241 z m -0.66123,-1.01178 c 0,-0.0187 0.13335,-0.11265 0.29634,-0.20881 0.16298,-0.0962 0.29633,-0.139 0.29633,-0.0952 0,0.0438 -0.11241,0.13776 -0.2498,0.20881 -0.25416,0.13143 -0.34287,0.15606 -0.34287,0.0952 z"
       id="path1" /></g></svg>
