<?xml version="1.0" encoding="UTF-8" standalone="no"?>
<svg
   width="36"
   height="36"
   viewBox="0 0 36 36"
   version="1.1"
   id="svg3"
   sodipodi:docname="io.github.giantpinkrobots.flatsweep-symbolic.svg"
   inkscape:version="1.3 (0e150ed6c4, 2023-07-21)"
   inkscape:export-filename="io.github.giantpinkrobots.flatsweep-symbolic.svg"
   inkscape:export-xdpi="27"
   inkscape:export-ydpi="27"
   xmlns:inkscape="http://www.inkscape.org/namespaces/inkscape"
   xmlns:sodipodi="http://sodipodi.sourceforge.net/DTD/sodipodi-0.dtd"
   xmlns="http://www.w3.org/2000/svg"
   xmlns:svg="http://www.w3.org/2000/svg">
  <defs
     id="defs3">
    <inkscape:path-effect
       effect="perspective-envelope"
       up_left_point="134.16771,61.542044"
       up_right_point="168.80834,41.542044"
       down_left_point="134.16771,101.54204"
       down_right_point="168.80523,83.80604"
       id="path-effect23"
       is_visible="true"
       lpeversion="1"
       deform_type="perspective"
       horizontal_mirror="false"
       vertical_mirror="false"
       overflow_perspective="false" />
    <inkscape:path-effect
       effect="perspective-envelope"
       up_left_point="134.16112,63.894583"
       up_right_point="166.45855,45.82092"
       down_left_point="134.16771,101.54204"
       down_right_point="166.46984,84.509694"
       id="path-effect23-3"
       is_visible="true"
       lpeversion="1"
       deform_type="perspective"
       horizontal_mirror="false"
       vertical_mirror="false"
       overflow_perspective="false" />
    <inkscape:path-effect
       effect="perspective-envelope"
       up_left_point="74.825329,70.246338"
       up_right_point="101.51237,54.838568"
       down_left_point="74.825329,97.749993"
       down_right_point="101.51237,82.342223"
       id="path-effect2"
       is_visible="true"
       lpeversion="1"
       deform_type="perspective"
       horizontal_mirror="false"
       vertical_mirror="false"
       overflow_perspective="false" />
  </defs>
  <sodipodi:namedview
     id="namedview3"
     pagecolor="#505050"
     bordercolor="#eeeeee"
     borderopacity="1"
     inkscape:showpageshadow="0"
     inkscape:pageopacity="0"
     inkscape:pagecheckerboard="0"
     inkscape:deskcolor="#505050"
     inkscape:zoom="11.313709"
     inkscape:cx="11.888233"
     inkscape:cy="26.825863"
     inkscape:window-width="1920"
     inkscape:window-height="1011"
     inkscape:window-x="0"
     inkscape:window-y="0"
     inkscape:window-maximized="1"
     inkscape:current-layer="svg3" />
  <path
     id="path6"
     style="display:inline;stroke-width:2.54035;stroke-linecap:square;stroke-linejoin:round"
     d="M 26.732422 17.884766 C 26.715652 17.886366 26.697317 17.890664 26.679688 17.896484 C 26.662058 17.902284 26.644893 17.909562 26.626953 17.919922 L 24.910156 18.910156 C 24.892296 18.920466 24.875002 18.932806 24.857422 18.947266 C 24.839832 18.961726 24.823391 18.978384 24.806641 18.996094 C 24.789891 19.013804 24.773172 19.032664 24.757812 19.052734 C 24.742453 19.072804 24.728254 19.093694 24.714844 19.115234 C 24.701444 19.136774 24.688624 19.159521 24.677734 19.181641 C 24.666844 19.203751 24.656257 19.226247 24.648438 19.248047 C 24.640638 19.269837 24.635049 19.29192 24.630859 19.3125 C 24.626659 19.33308 24.625 19.352624 24.625 19.371094 L 24.625 19.666016 L 26.912109 18.34375 L 26.912109 18.050781 C 26.912109 18.032491 26.91045 18.013697 26.90625 17.998047 C 26.90205 17.982397 26.896452 17.969781 26.888672 17.957031 C 26.880872 17.944291 26.870245 17.931445 26.859375 17.921875 C 26.848515 17.912275 26.835656 17.904557 26.822266 17.898438 C 26.808886 17.892338 26.794647 17.889139 26.779297 17.886719 C 26.763947 17.884319 26.749182 17.883266 26.732422 17.884766 z M 27.769531 19.027344 L 23.767578 21.339844 L 23.767578 26.349609 L 27.769531 24.037109 L 27.769531 19.027344 z M 26.6875 20.589844 C 26.699507 20.589481 26.711251 20.590497 26.722656 20.591797 C 26.745466 20.594497 26.767729 20.600595 26.787109 20.609375 C 26.806489 20.618175 26.824464 20.629901 26.839844 20.644531 C 26.855234 20.659161 26.868086 20.677056 26.878906 20.697266 C 26.889726 20.717476 26.898607 20.740085 26.904297 20.765625 C 26.909997 20.791165 26.912109 20.818999 26.912109 20.849609 L 26.912109 23.207031 C 26.912109 23.237641 26.909997 23.268671 26.904297 23.300781 C 26.898597 23.332891 26.889726 23.365728 26.878906 23.398438 C 26.868086 23.431147 26.855224 23.463704 26.839844 23.496094 C 26.824464 23.528484 26.806489 23.560637 26.787109 23.591797 C 26.767729 23.622957 26.745466 23.652621 26.722656 23.681641 C 26.699846 23.710671 26.676071 23.739655 26.650391 23.765625 C 26.624721 23.791605 26.598282 23.815871 26.570312 23.837891 C 26.542343 23.859911 26.512122 23.879334 26.482422 23.896484 C 26.452722 23.913634 26.424454 23.92722 26.396484 23.9375 C 26.368514 23.94778 26.342086 23.955324 26.316406 23.958984 C 26.290736 23.962684 26.266951 23.961684 26.244141 23.958984 C 26.221331 23.956284 26.199067 23.952189 26.179688 23.943359 C 26.160308 23.934559 26.142333 23.922833 26.126953 23.908203 C 26.111563 23.893573 26.098711 23.875679 26.087891 23.855469 C 26.077071 23.835259 26.06819 23.812649 26.0625 23.787109 C 26.0568 23.761569 26.054688 23.731782 26.054688 23.701172 L 26.054688 21.34375 C 26.054688 21.31314 26.0568 21.28211 26.0625 21.25 C 26.0682 21.21789 26.077071 21.185054 26.087891 21.152344 C 26.098711 21.119634 26.111573 21.087077 26.126953 21.054688 C 26.142333 21.022298 26.160308 20.990144 26.179688 20.958984 C 26.199067 20.927824 26.221331 20.898161 26.244141 20.869141 C 26.266951 20.840111 26.290726 20.813079 26.316406 20.787109 C 26.342076 20.761129 26.368514 20.736864 26.396484 20.714844 C 26.424454 20.692824 26.452722 20.671447 26.482422 20.654297 C 26.512122 20.637147 26.542343 20.623561 26.570312 20.613281 C 26.598282 20.603001 26.624711 20.59742 26.650391 20.59375 C 26.663226 20.5919 26.675493 20.590206 26.6875 20.589844 z M 25.257812 21.416016 C 25.269819 21.416141 25.281559 21.416619 25.292969 21.417969 C 25.315779 21.420669 25.338042 21.424764 25.357422 21.433594 C 25.376802 21.442394 25.394776 21.45412 25.410156 21.46875 C 25.425536 21.48338 25.438399 21.501274 25.449219 21.521484 C 25.460039 21.541694 25.468919 21.564304 25.474609 21.589844 C 25.480309 21.615384 25.482422 21.643218 25.482422 21.673828 L 25.482422 24.033203 C 25.482422 24.063813 25.480309 24.094843 25.474609 24.126953 C 25.468909 24.159063 25.460039 24.191899 25.449219 24.224609 C 25.438399 24.257319 25.425536 24.289876 25.410156 24.322266 C 25.394766 24.354656 25.376802 24.386809 25.357422 24.417969 C 25.338042 24.449129 25.315779 24.478793 25.292969 24.507812 C 25.270159 24.536842 25.246383 24.563864 25.220703 24.589844 C 25.195033 24.615824 25.168595 24.640089 25.140625 24.662109 C 25.112655 24.684129 25.084387 24.705506 25.054688 24.722656 C 25.024988 24.739806 24.994767 24.753392 24.966797 24.763672 C 24.938827 24.773952 24.912399 24.779533 24.886719 24.783203 C 24.861049 24.786903 24.837263 24.787756 24.814453 24.785156 C 24.791643 24.782456 24.76938 24.776358 24.75 24.767578 C 24.73062 24.758778 24.712646 24.747052 24.697266 24.732422 C 24.681886 24.717792 24.669023 24.699897 24.658203 24.679688 C 24.647383 24.659478 24.638502 24.636868 24.632812 24.611328 C 24.627113 24.585788 24.625 24.557954 24.625 24.527344 L 24.625 22.169922 C 24.625 22.139312 24.627113 22.108282 24.632812 22.076172 C 24.638512 22.044062 24.647383 22.011226 24.658203 21.978516 C 24.669023 21.945806 24.681886 21.913249 24.697266 21.880859 C 24.712656 21.848469 24.73062 21.816316 24.75 21.785156 C 24.76938 21.753996 24.791643 21.722389 24.814453 21.693359 C 24.837263 21.664329 24.861039 21.637308 24.886719 21.611328 C 24.912389 21.585348 24.938827 21.561082 24.966797 21.539062 C 24.994767 21.517043 25.024988 21.497619 25.054688 21.480469 C 25.084387 21.463319 25.112655 21.449733 25.140625 21.439453 C 25.168595 21.429173 25.195023 21.421629 25.220703 21.417969 C 25.233538 21.416119 25.245806 21.415891 25.257812 21.416016 z " />
  <path
     id="path2"
     style="display:inline;stroke-width:2.54035;stroke-linecap:square;stroke-linejoin:round"
     d="M 18 1.125 C 17.94424 1.125 17.837071 1.1549397 17.683594 1.2128906 C 17.530116 1.2708406 17.329575 1.3563745 17.091797 1.4648438 C 16.616242 1.6817824 15.986132 1.9927581 15.253906 2.3671875 C 14.521681 2.7416169 13.688163 3.1798713 12.806641 3.6523438 C 11.925118 4.1248161 10.995712 4.6315106 10.072266 5.1425781 L 4.5117188 5.1425781 C 4.3555266 5.1425781 4.2008475 5.1506686 4.0488281 5.1660156 C 3.8968089 5.1813668 3.7467105 5.204418 3.5996094 5.234375 C 3.4525082 5.264332 3.3094065 5.3018855 3.1679688 5.3457031 C 3.0265309 5.3895208 2.8869824 5.4391607 2.7519531 5.4960938 C 2.6169239 5.5530269 2.4852973 5.6162434 2.3574219 5.6855469 C 2.2295464 5.7548502 2.1063046 5.831181 1.9863281 5.9121094 C 1.8663516 5.9930378 1.7500042 6.0781136 1.6386719 6.1699219 C 1.5273396 6.2617301 1.4203022 6.3589946 1.3183594 6.4609375 C 1.2164165 6.5628804 1.1191521 6.6699177 1.0273438 6.78125 C 0.93553555 6.8925823 0.85045967 7.0089299 0.76953125 7.1289062 C 0.68860283 7.2488827 0.61227213 7.3721245 0.54296875 7.5 C 0.47366537 7.6278755 0.41044875 7.7595021 0.35351562 7.8945312 C 0.29658249 8.0295605 0.24694266 8.169109 0.203125 8.3105469 C 0.15930734 8.4519846 0.12175387 8.5950863 0.091796875 8.7421875 C 0.061839895 8.8892887 0.038788595 9.0393869 0.0234375 9.1914062 C 0.0080864054 9.3434255 0 9.4981046 0 9.6542969 L 0 26.345703 C 0 26.501896 0.0080864054 26.656574 0.0234375 26.808594 C 0.038788595 26.960613 0.061839895 27.110712 0.091796875 27.257812 C 0.12175387 27.404914 0.15930734 27.548015 0.203125 27.689453 C 0.24694266 27.830891 0.29658245 27.970439 0.35351562 28.105469 C 0.41044877 28.240498 0.47366537 28.372124 0.54296875 28.5 C 0.61227218 28.627876 0.68860283 28.751117 0.76953125 28.871094 C 0.85045967 28.99107 0.93553555 29.107418 1.0273438 29.21875 C 1.1191517 29.330082 1.2164165 29.437121 1.3183594 29.539062 C 1.4203022 29.641005 1.5273396 29.73827 1.6386719 29.830078 C 1.7500042 29.921888 1.8663516 30.006962 1.9863281 30.087891 C 2.1063046 30.168821 2.2295464 30.24515 2.3574219 30.314453 C 2.4852973 30.383753 2.6169239 30.446973 2.7519531 30.503906 C 2.8869824 30.560836 3.0265309 30.610479 3.1679688 30.654297 C 3.3094065 30.698117 3.4525082 30.735667 3.5996094 30.765625 C 3.7467105 30.795585 3.8968089 30.818634 4.0488281 30.833984 C 4.2008475 30.849334 4.3555266 30.857422 4.5117188 30.857422 L 10.072266 30.857422 C 10.995712 31.368489 11.925118 31.875184 12.806641 32.347656 C 13.688163 32.820129 14.521681 33.258384 15.253906 33.632812 C 15.986132 34.007242 16.616242 34.318217 17.091797 34.535156 C 17.329575 34.643626 17.530116 34.729159 17.683594 34.787109 C 17.837071 34.845059 17.944244 34.875 18 34.875 C 18.05576 34.875 18.162929 34.845059 18.316406 34.787109 C 18.469884 34.729159 18.670425 34.643626 18.908203 34.535156 C 19.383758 34.318217 20.013868 34.007242 20.746094 33.632812 C 21.478319 33.258384 22.311837 32.820129 23.193359 32.347656 C 24.074882 31.875184 25.004288 31.368489 25.927734 30.857422 L 31.488281 30.857422 C 31.644474 30.857422 31.799152 30.849324 31.951172 30.833984 C 32.103191 30.818634 32.253289 30.795585 32.400391 30.765625 C 32.547491 30.735665 32.690593 30.698115 32.832031 30.654297 C 32.973469 30.610477 33.113017 30.560837 33.248047 30.503906 C 33.383076 30.446976 33.514703 30.383757 33.642578 30.314453 C 33.770454 30.245153 33.893695 30.168819 34.013672 30.087891 C 34.133648 30.006961 34.249996 29.921886 34.361328 29.830078 C 34.472661 29.738268 34.579698 29.641005 34.681641 29.539062 C 34.783584 29.437121 34.880848 29.330082 34.972656 29.21875 C 35.064466 29.107418 35.14954 28.99107 35.230469 28.871094 C 35.311399 28.751117 35.387728 28.627876 35.457031 28.5 C 35.526331 28.372124 35.589551 28.240498 35.646484 28.105469 C 35.703414 27.970439 35.753057 27.830891 35.796875 27.689453 C 35.840695 27.548015 35.878245 27.404914 35.908203 27.257812 C 35.938163 27.110712 35.961213 26.960613 35.976562 26.808594 C 35.991913 26.656574 36 26.501896 36 26.345703 L 36 9.6542969 C 36 9.4981046 35.991914 9.3434255 35.976562 9.1914062 C 35.961212 9.0393869 35.93816 8.8892887 35.908203 8.7421875 C 35.878246 8.5950863 35.840693 8.4519846 35.796875 8.3105469 C 35.753057 8.169109 35.703418 8.0295605 35.646484 7.8945312 C 35.589551 7.7595021 35.526335 7.6278755 35.457031 7.5 C 35.387728 7.3721245 35.311397 7.2488827 35.230469 7.1289062 C 35.14954 7.0089299 35.064465 6.8925823 34.972656 6.78125 C 34.880848 6.6699177 34.783584 6.5628804 34.681641 6.4609375 C 34.579698 6.3589946 34.472661 6.2617301 34.361328 6.1699219 C 34.249996 6.0781136 34.133648 5.9930378 34.013672 5.9121094 C 33.893695 5.831181 33.770454 5.7548502 33.642578 5.6855469 C 33.514703 5.6162434 33.383076 5.5530269 33.248047 5.4960938 C 33.113017 5.4391607 32.973469 5.3895208 32.832031 5.3457031 C 32.690593 5.3018855 32.547491 5.264332 32.400391 5.234375 C 32.253289 5.204418 32.103191 5.1813667 31.951172 5.1660156 C 31.799152 5.1506645 31.644474 5.1425781 31.488281 5.1425781 L 25.927734 5.1425781 C 25.004288 4.6315106 24.074882 4.1248161 23.193359 3.6523438 C 22.311837 3.1798713 21.478319 2.7416169 20.746094 2.3671875 C 20.013868 1.9927581 19.383758 1.6817824 18.908203 1.4648438 C 18.670425 1.3563745 18.469884 1.2708408 18.316406 1.2128906 C 18.162929 1.1549405 18.055756 1.125 18 1.125 z M 18 5.1425781 L 29.134766 11.572266 L 18 18 L 18 30.857422 L 6.8652344 24.427734 L 6.8652344 11.572266 L 18 18 L 18 5.1425781 z M 27.408203 16.634766 C 27.441711 16.631535 27.473191 16.633959 27.503906 16.638672 C 27.534622 16.643385 27.564991 16.651913 27.591797 16.664062 C 27.618603 16.676212 27.642283 16.691857 27.664062 16.710938 C 27.685842 16.730018 27.705066 16.751839 27.720703 16.777344 C 27.73634 16.802849 27.749436 16.831858 27.757812 16.863281 C 27.766189 16.894704 27.769531 16.928009 27.769531 16.964844 L 27.769531 17.849609 L 29.771484 16.693359 C 29.791285 16.681927 29.811431 16.672869 29.830078 16.666016 C 29.848725 16.659162 29.865697 16.654789 29.882812 16.652344 C 29.899928 16.649898 29.916434 16.650553 29.931641 16.652344 C 29.946848 16.654135 29.961689 16.656253 29.974609 16.662109 C 29.98753 16.667966 29.999509 16.675796 30.009766 16.685547 C 30.020022 16.695297 30.027941 16.707229 30.035156 16.720703 C 30.042372 16.734177 30.048938 16.750552 30.052734 16.767578 C 30.056531 16.784604 30.056641 16.803812 30.056641 16.824219 L 30.056641 17.412109 C 30.056641 17.432516 30.056531 17.4532 30.052734 17.474609 C 30.048938 17.496019 30.042372 17.51921 30.035156 17.541016 C 30.027941 17.562821 30.020022 17.583875 30.009766 17.605469 C 29.999509 17.627063 29.98753 17.649146 29.974609 17.669922 C 29.961689 17.690698 29.946848 17.711118 29.931641 17.730469 C 29.916434 17.749819 29.899928 17.767838 29.882812 17.785156 C 29.865697 17.802474 29.848725 17.819306 29.830078 17.833984 C 29.811431 17.848663 29.791285 17.861615 29.771484 17.873047 L 28.914062 18.367188 L 28.914062 23.966797 C 28.914062 24.003632 28.908768 24.042888 28.900391 24.083984 C 28.892014 24.12508 28.880871 24.167377 28.865234 24.210938 C 28.849597 24.254498 28.830374 24.29952 28.808594 24.34375 C 28.786814 24.38798 28.761181 24.431506 28.734375 24.474609 C 28.707569 24.517712 28.679153 24.559429 28.648438 24.599609 C 28.617722 24.639789 28.586242 24.679383 28.552734 24.714844 C 28.519227 24.750305 28.484402 24.781601 28.449219 24.810547 C 28.414036 24.839493 28.377538 24.866083 28.341797 24.886719 L 23.195312 27.857422 C 23.159571 27.878057 23.123074 27.89457 23.087891 27.90625 C 23.052708 27.91793 23.017883 27.924504 22.984375 27.927734 C 22.950867 27.930965 22.919387 27.930494 22.888672 27.925781 C 22.857956 27.921068 22.829541 27.912541 22.802734 27.900391 C 22.775928 27.888241 22.750296 27.872596 22.728516 27.853516 C 22.706736 27.834435 22.687512 27.812614 22.671875 27.787109 C 22.656238 27.761604 22.645096 27.732595 22.636719 27.701172 C 22.628342 27.669749 22.623047 27.634491 22.623047 27.597656 L 22.623047 22 L 21.765625 22.494141 C 21.745824 22.505573 21.725678 22.514631 21.707031 22.521484 C 21.688384 22.528338 21.671413 22.532711 21.654297 22.535156 C 21.637181 22.537602 21.620676 22.5389 21.605469 22.537109 C 21.590262 22.535319 21.575421 22.531247 21.5625 22.525391 C 21.549579 22.519534 21.5376 22.511704 21.527344 22.501953 C 21.517087 22.492203 21.509168 22.480271 21.501953 22.466797 C 21.494738 22.453323 21.490125 22.438901 21.486328 22.421875 C 21.482532 22.404849 21.480469 22.385641 21.480469 22.365234 L 21.480469 21.775391 C 21.480469 21.754984 21.482532 21.7343 21.486328 21.712891 C 21.490125 21.691481 21.494738 21.670243 21.501953 21.648438 C 21.509168 21.626632 21.517087 21.603625 21.527344 21.582031 C 21.5376 21.560437 21.549579 21.540307 21.5625 21.519531 C 21.575421 21.498756 21.590262 21.478335 21.605469 21.458984 C 21.620676 21.439634 21.637181 21.421615 21.654297 21.404297 C 21.671413 21.386979 21.688384 21.370147 21.707031 21.355469 C 21.725678 21.34079 21.745824 21.327838 21.765625 21.316406 L 23.767578 20.160156 L 23.767578 19.277344 C 23.767578 19.240509 23.77092 19.199299 23.779297 19.158203 C 23.787674 19.117107 23.800769 19.074811 23.816406 19.03125 C 23.832043 18.987689 23.851267 18.944621 23.873047 18.900391 C 23.894827 18.856161 23.918506 18.810681 23.945312 18.767578 C 23.972119 18.724475 24.002488 18.682758 24.033203 18.642578 C 24.063919 18.602398 24.095398 18.564758 24.128906 18.529297 C 24.162414 18.493836 24.197239 18.460587 24.232422 18.431641 C 24.267605 18.402694 24.304102 18.378057 24.339844 18.357422 L 27.197266 16.707031 C 27.233007 16.686396 27.269504 16.669883 27.304688 16.658203 C 27.339871 16.646523 27.374695 16.637996 27.408203 16.634766 z " />
</svg>
