<svg xmlns="http://www.w3.org/2000/svg" width="128" height="128" viewBox="0 0 128 128" version="1.1"><path d="M 64 44.433 C 64 55.745, 63.691 65, 63.314 65 C 62.937 65, 54.899 60.500, 45.451 55 C 36.004 49.500, 27.988 45, 27.637 45 C 27.287 45, 27 54.665, 27 66.477 C 27 87.674, 27.029 87.972, 29.250 89.332 C 36.380 93.698, 49.529 101.298, 56.250 104.937 C 64 109.132, 64 109.132, 64 87.659 C 64 66.186, 64 66.186, 81.987 55.843 C 91.880 50.154, 99.980 45.189, 99.987 44.810 C 100.003 43.933, 69.264 25.477, 66.250 24.554 C 64 23.865, 64 23.865, 64 44.433 M 86.489 64.262 C 82.978 66.558, 81.168 68.548, 80.379 70.980 C 79.672 73.160, 77.919 75.283, 75.629 76.732 C 71.698 79.220, 70.568 82.608, 73.965 81.719 C 75.804 81.238, 75.948 81.822, 76.215 90.853 C 76.484 99.948, 76.627 100.518, 78.714 100.815 C 81.464 101.206, 94.107 93.950, 96.930 90.362 C 98.714 88.094, 99 86.330, 99 77.606 C 99 68.564, 99.214 67.347, 101 66.232 C 103.208 64.853, 103.720 61.982, 101.750 62.032 C 101.063 62.049, 99.626 62.724, 98.559 63.532 C 95.988 65.477, 95.334 65.386, 94.710 63 C 93.984 60.222, 92.263 60.486, 86.489 64.262 M 87.250 67.989 C 85.463 69.079, 84 70.412, 84 70.952 C 84 71.491, 85.575 71.003, 87.500 69.867 C 89.425 68.732, 91 67.397, 91 66.901 C 91 65.705, 90.994 65.706, 87.250 67.989 M 87.250 74.232 C 80 78.411, 80 78.411, 80 87.705 C 80 92.817, 80.185 97, 80.412 97 C 80.639 97, 84.014 95.161, 87.912 92.914 C 95 88.827, 95 88.827, 95 79.414 C 95 74.236, 94.888 70.012, 94.750 70.027 C 94.612 70.041, 91.237 71.934, 87.250 74.232 M 89.667 76.667 C 88.597 77.736, 88.899 88, 90 88 C 90.556 88, 91 85.333, 91 82 C 91 75.946, 90.877 75.456, 89.667 76.667 M 84.015 85.750 C 84.026 90.477, 84.321 92.050, 85 91 C 86.281 89.017, 86.281 79, 85 79 C 84.431 79, 84.007 81.906, 84.015 85.750" stroke="none" fill="#ffffff" fill-rule="evenodd"/><path d="M 55.891 15.879 C 52.926 17.463, 48.368 20.051, 45.762 21.629 C 43.156 23.208, 36.360 27.282, 30.658 30.683 C 16.547 39.099, 16.999 37.908, 17.004 66.651 C 17.007 87.304, 17.189 89.798, 18.900 92.604 C 20.827 95.765, 26.756 99.693, 48.500 112.217 C 63.902 121.088, 64.829 121.071, 81 111.600 C 108.246 95.643, 109.387 94.788, 111.095 89.060 C 111.751 86.862, 112.031 77.204, 111.828 63.821 C 111.523 43.646, 111.354 41.945, 109.401 39.321 C 105.535 34.124, 69.172 13, 64.093 13 C 62.547 13, 58.856 14.296, 55.891 15.879 M 64 44.433 C 64 55.745, 63.691 65, 63.314 65 C 62.937 65, 54.899 60.500, 45.451 55 C 36.004 49.500, 27.988 45, 27.637 45 C 27.287 45, 27 54.665, 27 66.477 C 27 87.674, 27.029 87.972, 29.250 89.332 C 36.380 93.698, 49.529 101.298, 56.250 104.937 C 64 109.132, 64 109.132, 64 87.659 C 64 66.186, 64 66.186, 81.987 55.843 C 91.880 50.154, 99.980 45.189, 99.987 44.810 C 100.003 43.933, 69.264 25.477, 66.250 24.554 C 64 23.865, 64 23.865, 64 44.433 M 86.489 64.262 C 82.978 66.558, 81.168 68.548, 80.379 70.980 C 79.672 73.160, 77.919 75.283, 75.629 76.732 C 71.698 79.220, 70.568 82.608, 73.965 81.719 C 75.804 81.238, 75.948 81.822, 76.215 90.853 C 76.484 99.948, 76.627 100.518, 78.714 100.815 C 81.464 101.206, 94.107 93.950, 96.930 90.362 C 98.714 88.094, 99 86.330, 99 77.606 C 99 68.564, 99.214 67.347, 101 66.232 C 103.208 64.853, 103.720 61.982, 101.750 62.032 C 101.063 62.049, 99.626 62.724, 98.559 63.532 C 95.988 65.477, 95.334 65.386, 94.710 63 C 93.984 60.222, 92.263 60.486, 86.489 64.262 M 87.250 67.989 C 85.463 69.079, 84 70.412, 84 70.952 C 84 71.491, 85.575 71.003, 87.500 69.867 C 89.425 68.732, 91 67.397, 91 66.901 C 91 65.705, 90.994 65.706, 87.250 67.989 M 87.250 74.232 C 80 78.411, 80 78.411, 80 87.705 C 80 92.817, 80.185 97, 80.412 97 C 80.639 97, 84.014 95.161, 87.912 92.914 C 95 88.827, 95 88.827, 95 79.414 C 95 74.236, 94.888 70.012, 94.750 70.027 C 94.612 70.041, 91.237 71.934, 87.250 74.232 M 89.667 76.667 C 88.597 77.736, 88.899 88, 90 88 C 90.556 88, 91 85.333, 91 82 C 91 75.946, 90.877 75.456, 89.667 76.667 M 84.015 85.750 C 84.026 90.477, 84.321 92.050, 85 91 C 86.281 89.017, 86.281 79, 85 79 C 84.431 79, 84.007 81.906, 84.015 85.750" stroke="none" fill="#fb4d4d" fill-rule="evenodd"/><path d="M 14.041 27.619 C 8.080 32.635, 8 33.128, 8 65 C 8 96.859, 8.158 97.840, 13.945 101.961 C 16.519 103.794, 18.081 104.040, 25.534 103.790 C 34.148 103.500, 34.148 103.500, 27.528 99.698 C 17.022 93.664, 17.008 93.620, 17.004 66.651 C 16.999 37.976, 16.589 39.074, 30.336 30.946 C 40.393 25, 40.393 25, 28.773 25 C 17.697 25, 17.008 25.122, 14.041 27.619 M 94 28.404 C 97.025 30.251, 101.376 32.900, 103.668 34.292 C 111.232 38.882, 111.458 39.688, 111.825 63.398 C 112.003 74.945, 111.873 85.865, 111.535 87.666 C 110.670 92.277, 106.847 96.403, 99.674 100.470 C 93.500 103.969, 93.500 103.969, 102.868 103.985 C 112.235 104, 112.235 104, 116.118 100.118 C 120 96.235, 120 96.235, 120 64.500 C 120 32.765, 120 32.765, 116.118 28.882 C 112.235 25, 112.235 25, 100.368 25.023 C 88.500 25.045, 88.500 25.045, 94 28.404" stroke="none" fill="#3269ae" fill-rule="evenodd"/></svg>