<?xml version="1.0" encoding="UTF-8" standalone="no"?>
<svg
   width="128"
   height="128"
   viewBox="0 0 128 128"
   version="1.1"
   id="svg3"
   sodipodi:docname="io.github.giantpinkrobots.flatsweep.svg"
   inkscape:version="1.3 (0e150ed6c4, 2023-07-21)"
   xmlns:inkscape="http://www.inkscape.org/namespaces/inkscape"
   xmlns:sodipodi="http://sodipodi.sourceforge.net/DTD/sodipodi-0.dtd"
   xmlns="http://www.w3.org/2000/svg"
   xmlns:svg="http://www.w3.org/2000/svg">
  <defs
     id="defs3">
    <inkscape:path-effect
       effect="perspective-envelope"
       up_left_point="134.16771,61.542044"
       up_right_point="168.80834,41.542044"
       down_left_point="134.16771,101.54204"
       down_right_point="168.80523,83.80604"
       id="path-effect23"
       is_visible="true"
       lpeversion="1"
       deform_type="perspective"
       horizontal_mirror="false"
       vertical_mirror="false"
       overflow_perspective="false" />
    <inkscape:path-effect
       effect="perspective-envelope"
       up_left_point="72.651103,68.975796"
       up_right_point="98.641016,53.970513"
       down_left_point="72.651103,99.005283"
       down_right_point="98.641016,84.000001"
       id="path-effect17"
       is_visible="true"
       lpeversion="1"
       deform_type="perspective"
       horizontal_mirror="false"
       vertical_mirror="false"
       overflow_perspective="false" />
    <inkscape:path-effect
       effect="perspective-envelope"
       up_left_point="78.413638,63.975002"
       up_right_point="108.41364,63.975002"
       down_left_point="78.413638,92.975003"
       down_right_point="108.41364,92.975003"
       id="path-effect16"
       is_visible="true"
       lpeversion="1"
       deform_type="perspective"
       horizontal_mirror="false"
       vertical_mirror="false"
       overflow_perspective="false" />
  </defs>
  <sodipodi:namedview
     id="namedview3"
     pagecolor="#505050"
     bordercolor="#eeeeee"
     borderopacity="1"
     inkscape:showpageshadow="0"
     inkscape:pageopacity="0"
     inkscape:pagecheckerboard="0"
     inkscape:deskcolor="#505050"
     inkscape:zoom="2.8284271"
     inkscape:cx="24.571961"
     inkscape:cy="88.211571"
     inkscape:window-width="1920"
     inkscape:window-height="1011"
     inkscape:window-x="0"
     inkscape:window-y="0"
     inkscape:window-maximized="1"
     inkscape:current-layer="svg3" />
  <rect
     style="display:inline;fill:#1c71d8;fill-opacity:1;stroke:none;stroke-width:7.90332;stroke-linecap:square;stroke-linejoin:round"
     id="rect3"
     width="112"
     height="80"
     x="8"
     y="24"
     ry="14.034162"
     inkscape:label="Blue Background" />
  <path
     sodipodi:type="star"
     style="display:inline;fill:#ed333b;fill-opacity:1;stroke:none;stroke-width:5;stroke-linecap:square;stroke-linejoin:round"
     id="path4"
     inkscape:flatsided="true"
     sodipodi:sides="6"
     sodipodi:cx="36.324223"
     sodipodi:cy="41.657764"
     sodipodi:r1="48.427113"
     sodipodi:r2="41.93911"
     sodipodi:arg1="0.52359878"
     sodipodi:arg2="1.0471976"
     inkscape:rounded="0.05"
     inkscape:randomized="0"
     d="m 78.263332,65.871321 c -1.210678,2.096955 -39.517754,24.213556 -41.93911,24.213556 -2.421355,0 -40.7284315,-22.116601 -41.9391093,-24.213556 -1.2106778,-2.096956 -1.2106776,-46.330158 2e-7,-48.427113 1.2106779,-2.096956 39.5177541,-24.2135562 41.9391101,-24.2135561 2.421355,0 40.728432,22.1166011 41.939109,24.2135561 1.210678,2.096956 1.210678,46.330157 0,48.427113 z"
     transform="matrix(1.1325944,0,0,1.0841035,22.859389,18.838672)"
     inkscape:label="Red Cube" />
  <path
     id="path23"
     style="display:inline;fill:#ffffff;stroke:none;stroke-width:0.1;stroke-linecap:square;stroke-linejoin:round"
     d="M 64,24 V 64 L 98.640625,44 Z M 64,64 29.359375,44 V 84 L 64,104 Z"
     inkscape:label="White Cube" />
  <path
     id="path7"
     style="display:inline;fill:#ffffff;stroke-width:0.143847;stroke-linecap:square;stroke-linejoin:round"
     d="m 145.29501,55.117622 c -1.13089,0.652928 -2.25772,2.656267 -2.25774,4.009021 l -8e-5,4.058235 -7.77467,4.404125 c -0.60701,0.343853 -1.09481,1.21488 -1.09481,1.953584 v 2.666787 c 0,0.738694 0.4878,1.061307 1.0948,0.722744 l 3.30801,-1.845084 -2.4e-4,25.515064 c -1e-5,1.34282 1.11052,2.116986 2.22507,1.546285 L 161.5678,87.511935 c 1.19498,-0.611882 2.39451,-2.624182 2.3946,-4.022316 l 0.002,-26.566155 3.62566,-2.022256 c 0.67402,-0.375943 1.21771,-1.307518 1.21777,-2.088023 l 2.1e-4,-2.817735 c 6e-5,-0.780517 -0.54355,-1.100916 -1.21758,-0.719098 l -8.39713,4.756726 2.3e-4,-4.16384 c 7e-5,-1.387962 -1.18167,-2.093605 -2.35912,-1.4138 z m 2.27404,2.774905 6.92304,-3.951842 c 0.58634,-0.334697 1.16872,0.02763 1.16869,0.713095 l -6e-5,1.380242 -9.23088,5.22902 4e-5,-1.36013 c 2e-5,-0.682184 0.56933,-1.685111 1.13917,-2.010385 z m -4.53196,10.703222 16.15563,-9.010999 -0.001,23.593145 -16.15481,8.41267 z m 5.10273,1.24525 c -0.94862,0.522908 -1.71025,1.852614 -1.71028,2.982824 l -2.8e-4,10.880216 c -3e-5,1.130153 0.76152,1.638417 1.71011,1.138242 0.95147,-0.501694 1.71959,-1.821524 1.71962,-2.957885 l 3.7e-4,-10.939994 c 4e-5,-1.136419 -0.76804,-1.627898 -1.71954,-1.103403 z m 5.76898,-3.180044 c -0.96615,0.532576 -1.74186,1.878396 -1.7419,3.018993 l -4.2e-4,10.980211 c -4e-5,1.140539 0.77556,1.64975 1.74169,1.140328 0.96908,-0.510984 1.75145,-1.846778 1.75151,-2.993641 l 5e-4,-11.041094 c 5e-5,-1.146922 -0.78226,-1.639005 -1.75138,-1.104797 z"
     inkscape:label="Trashcan"
     inkscape:path-effect="#path-effect23"
     inkscape:original-d="m 148.80834,57.906087 c -1,0 -2.00001,1 -2,2 v 3 h -7 c -0.554,0 -1,0.446001 -1,1 v 2 c 0,0.553999 0.446,1 1,1 h 3 v 19 c 0,0.999999 1,2 2,2 h 18 c 1,0 2,-1.000001 2,-2 v -19 h 3 c 0.554,0 1,-0.446001 1,-1 v -2 c 0,-0.553999 -0.446,-1 -1,-1 h -7 v -3 c 0,-0.999999 -1,-2 -2,-2 z m 2,3 h 6 c 0.50214,0 1,0.503374 1,1 v 1 h -8 v -1 c 0,-0.501556 0.50022,-1.000002 1,-1 z m -4,6 h 14 v 17 h -14 z m 4.5,3 c -0.831,0 -1.5,0.669001 -1.5,1.5 v 8 c 0,0.830999 0.669,1.5 1.5,1.5 0.831,0 1.5,-0.669001 1.5,-1.5 v -8 c 0,-0.830999 -0.669,-1.5 -1.5,-1.5 z m 5,0 c -0.831,0 -1.5,0.669001 -1.5,1.5 v 8 c 0,0.830999 0.669,1.5 1.5,1.5 0.831,0 1.5,-0.669001 1.5,-1.5 v -8 c 0,-0.830999 -0.669,-1.5 -1.5,-1.5 z"
     transform="translate(-64.748309,3.2094197)" />
</svg>
